<?xml version="1.0" encoding="utf-8"?>
<!-- Generator: Adobe Illustrator 16.0.0, SVG Export Plug-In . SVG Version: 6.00 Build 0)  -->
<!DOCTYPE svg PUBLIC "-//W3C//DTD SVG 1.1//EN" "http://www.w3.org/Graphics/SVG/1.1/DTD/svg11.dtd">
<svg version="1.1" id="Layer_1" xmlns="http://www.w3.org/2000/svg" xmlns:xlink="http://www.w3.org/1999/xlink" x="0px" y="0px"
	 width="1920px" height="950px" viewBox="0 0 1920 950" enable-background="new 0 0 1920 950" xml:space="preserve">
<rect fill="#F6B57C" width="1920" height="950"/>
<g>
	<path fill="#3C3736" d="M1025.764,383.381v117.09c-0.024,6.659-7.143,12.055-15.464,12.035h-55.117h-55.539
		c-8.313-0.019-14.646-5.89-14.603-12.558V382.865c0.112-30.91,31.47-55.867,70.141-55.929h0.434
		C994.491,327.057,1025.9,352.367,1025.764,383.381z"/>
	<path fill="#3C3736" d="M1087.928,360.604c-17.105,0-32.901-3.378-45.688-9.084c8.549,10.026,25.788,16.884,45.688,16.884
		c19.91,0,37.146-6.855,45.705-16.884C1120.837,357.226,1105.041,360.604,1087.928,360.604z"/>
	<path fill="#3C3736" d="M817.483,360.604c-17.115,0-32.902-3.378-45.697-9.084c8.556,10.026,25.787,16.884,45.697,16.884
		c19.908,0,37.14-6.855,45.695-16.884C850.384,357.226,834.588,360.604,817.483,360.604z"/>
	<path fill="#3C3736" d="M734.058,335.172c-6.768-76.737,19.366-147.732,76.348-186.049l1.067-0.712
		c-32.525-19.981-72.26-21.78-103.123-1.068c-44.564,29.972-53.952,95.401-20.809,146.192
		C699.749,312.252,716.062,326.355,734.058,335.172z"/>
	<path fill="#3C3736" d="M1185.241,336.115c6.974-76.213-19.206-146.602-76.516-184.463l-1.066-0.713
		c32.795-19.928,72.817-21.852,103.869-1.389c44.813,29.615,54.139,94.547,20.657,145.07
		C1219.854,313.249,1203.38,327.318,1185.241,336.115z"/>
</g>
<g enable-background="new    ">
	<path fill="#3C3736" d="M717.657,635.401h-13.75l-14.961-24.063l-5.117,3.672v20.392H671.72v-57.109h12.109v26.133l4.766-6.719
		l15.469-19.414H717.5l-19.922,25.273L717.657,635.401z"/>
	<path fill="#3C3736" d="M717.657,591.729h13.047l8.242,24.57c0.703,2.136,1.185,4.662,1.444,7.578h0.234
		c0.286-2.682,0.846-5.208,1.68-7.578l8.086-24.57h12.773l-18.478,49.259c-1.692,4.557-4.107,7.969-7.245,10.233
		c-3.14,2.267-6.805,3.398-10.996,3.398c-2.059,0-4.076-0.222-6.056-0.664v-9.453c1.433,0.338,2.994,0.508,4.688,0.508
		c2.108,0,3.951-0.645,5.526-1.934s2.807-3.236,3.691-5.84l0.703-2.148L717.657,591.729z"/>
	<path fill="#3C3736" d="M809.103,613.487c0,7.108-1.875,12.67-5.625,16.68c-3.75,4.011-8.973,6.016-15.664,6.016
		c-4.193,0-7.892-0.918-11.095-2.754s-5.664-4.473-7.383-7.91c-1.719-3.437-2.578-7.446-2.578-12.03
		c0-7.136,1.861-12.683,5.586-16.642c3.725-3.958,8.958-5.938,15.703-5.938c4.192,0,7.892,0.912,11.094,2.733
		c3.203,1.823,5.664,4.44,7.384,7.853C808.243,604.907,809.103,608.904,809.103,613.487z M778.907,613.487
		c0,4.322,0.709,7.592,2.129,9.805c1.419,2.214,3.729,3.32,6.934,3.32c3.178,0,5.462-1.101,6.855-3.302
		c1.393-2.199,2.09-5.475,2.09-9.823c0-4.322-0.703-7.564-2.109-9.728c-1.405-2.161-3.711-3.242-6.914-3.242
		c-3.178,0-5.469,1.074-6.875,3.224C779.611,605.89,778.907,609.139,778.907,613.487z"/>
	<path fill="#3C3736" d="M859.258,635.401h-11.914v-25.509c0-3.149-0.561-5.514-1.68-7.09c-1.12-1.575-2.904-2.362-5.353-2.362
		c-3.334,0-5.741,1.112-7.227,3.34c-1.484,2.227-2.227,5.918-2.227,11.073v20.548h-11.914v-43.673h9.102l1.602,5.587h0.664
		c1.328-2.109,3.157-3.704,5.488-4.785c2.33-1.08,4.98-1.621,7.949-1.621c5.078,0,8.932,1.374,11.563,4.121
		c2.631,2.748,3.945,6.713,3.945,11.895L859.258,635.401L859.258,635.401z"/>
	<path fill="#3C3736" d="M909.532,591.729v6.056l-6.836,1.758c1.25,1.953,1.875,4.141,1.875,6.563c0,4.688-1.635,8.34-4.902,10.956
		c-3.269,2.617-7.807,3.927-13.613,3.927l-2.147-0.117l-1.758-0.195c-1.226,0.938-1.837,1.979-1.837,3.125
		c0,1.719,2.188,2.578,6.563,2.578h7.422c4.791,0,8.443,1.029,10.957,3.086c2.513,2.059,3.771,5.078,3.771,9.063
		c0,5.104-2.129,9.063-6.388,11.875c-4.258,2.812-10.37,4.219-18.34,4.219c-6.094,0-10.749-1.063-13.965-3.185
		c-3.217-2.123-4.824-5.098-4.824-8.926c0-2.631,0.82-4.831,2.461-6.602c1.642-1.771,4.05-3.033,7.228-3.789
		c-1.226-0.521-2.292-1.373-3.203-2.56c-0.912-1.185-1.367-2.44-1.367-3.77c0-1.666,0.48-3.053,1.445-4.16
		c0.963-1.106,2.355-2.193,4.18-3.262c-2.292-0.989-4.107-2.578-5.449-4.767c-1.342-2.188-2.012-4.766-2.012-7.733
		c0-4.767,1.549-8.45,4.648-11.056c3.099-2.604,7.524-3.905,13.28-3.905c1.225,0,2.677,0.11,4.355,0.332
		c1.68,0.222,2.754,0.385,3.223,0.487H909.532L909.532,591.729z M875.821,641.573c0,1.641,0.787,2.93,2.362,3.867
		s3.782,1.405,6.621,1.405c4.271,0,7.617-0.586,10.039-1.758s3.633-2.772,3.633-4.805c0-1.642-0.717-2.773-2.147-3.398
		c-1.434-0.625-3.646-0.938-6.641-0.938h-6.173c-2.188,0-4.018,0.514-5.487,1.543C876.556,638.52,875.821,639.88,875.821,641.573z
		 M880.157,606.026c0,2.37,0.54,4.245,1.621,5.625c1.08,1.381,2.728,2.069,4.94,2.069c2.239,0,3.88-0.688,4.922-2.069
		c1.041-1.38,1.563-3.255,1.563-5.625c0-5.261-2.162-7.892-6.484-7.892C882.344,598.136,880.157,600.767,880.157,606.026z"/>
	<path fill="#3C3736" d="M917.657,635.401v-57.109h12.108v47.109h23.164v10H917.657z"/>
	<path fill="#3C3736" d="M981.68,636.183c-7.03,0-12.524-1.938-16.483-5.819c-3.959-3.88-5.938-9.375-5.938-16.484
		c0-7.317,1.83-12.975,5.488-16.973c3.658-3.997,8.717-5.996,15.176-5.996c6.172,0,10.977,1.758,14.414,5.272
		c3.438,3.516,5.156,8.373,5.156,14.57v5.781h-28.164c0.131,3.386,1.133,6.028,3.008,7.93s4.506,2.853,7.891,2.853
		c2.631,0,5.117-0.273,7.461-0.82c2.345-0.547,4.791-1.419,7.345-2.617v9.219c-2.084,1.042-4.312,1.816-6.681,2.324
		S985.092,636.183,981.68,636.183z M980,599.386c-2.525,0-4.506,0.802-5.938,2.402c-1.432,1.601-2.252,3.874-2.461,6.815h16.72
		c-0.054-2.941-0.82-5.215-2.306-6.815C984.53,600.188,982.525,599.386,980,599.386z"/>
	<path fill="#3C3736" d="M1028.945,636.183c-7.031,0-12.525-1.938-16.484-5.819c-3.959-3.88-5.938-9.375-5.938-16.484
		c0-7.317,1.83-12.975,5.488-16.973c3.658-3.997,8.717-5.996,15.176-5.996c6.172,0,10.978,1.758,14.414,5.272
		c3.438,3.516,5.156,8.373,5.156,14.57v5.781h-28.164c0.131,3.386,1.133,6.028,3.008,7.93s4.506,2.853,7.892,2.853
		c2.631,0,5.116-0.273,7.461-0.82c2.344-0.547,4.791-1.419,7.344-2.617v9.219c-2.084,1.042-4.312,1.816-6.68,2.324
		C1035.248,635.93,1032.357,636.183,1028.945,636.183z M1027.266,599.386c-2.524,0-4.506,0.802-5.938,2.402
		c-1.433,1.601-2.252,3.874-2.461,6.815h16.719c-0.053-2.941-0.819-5.215-2.305-6.815S1029.791,599.386,1027.266,599.386z"/>
	<path fill="#3C3736" d="M1117.617,596.104c0,6.146-1.92,10.848-5.763,14.103c-3.842,3.256-9.303,4.883-16.387,4.883h-5.194v20.313
		h-12.109v-57.109h18.242c6.928,0,12.192,1.491,15.801,4.473C1115.813,585.747,1117.617,590.193,1117.617,596.104z
		 M1090.272,605.167h3.984c3.725,0,6.51-0.735,8.359-2.207c1.85-1.471,2.772-3.613,2.772-6.426c0-2.838-0.774-4.936-2.323-6.289
		c-1.55-1.354-3.979-2.031-7.285-2.031h-5.509L1090.272,605.167L1090.272,605.167z"/>
	<path fill="#3C3736" d="M1155.195,635.401l-2.306-5.938h-0.313c-2.006,2.526-4.068,4.277-6.191,5.254
		c-2.123,0.978-4.889,1.465-8.301,1.465c-4.193,0-7.494-1.196-9.902-3.594c-2.408-2.396-3.613-5.807-3.613-10.233
		c0-4.636,1.621-8.054,4.863-10.255c3.242-2.199,8.131-3.418,14.668-3.651l7.578-0.234V606.3c0-4.427-2.266-6.641-6.797-6.641
		c-3.49,0-7.592,1.055-12.305,3.164l-3.945-8.047c5.025-2.63,10.6-3.945,16.719-3.945c5.859,0,10.353,1.276,13.478,3.828
		c3.125,2.553,4.688,6.433,4.688,11.641v29.103L1155.195,635.401L1155.195,635.401z M1151.68,615.167l-4.608,0.156
		c-3.463,0.104-6.041,0.729-7.734,1.875c-1.693,1.146-2.539,2.891-2.539,5.233c0,3.359,1.928,5.039,5.781,5.039
		c2.76,0,4.967-0.794,6.621-2.383c1.654-1.588,2.479-3.697,2.479-6.328V615.167z"/>
	<path fill="#3C3736" d="M1200.156,590.909c1.614,0,2.955,0.117,4.022,0.352l-0.897,11.172c-0.963-0.26-2.136-0.391-3.517-0.391
		c-3.803,0-6.764,0.977-8.887,2.93s-3.184,4.688-3.184,8.203v22.228h-11.914V591.73h9.022l1.759,7.344h0.586
		c1.354-2.447,3.184-4.42,5.488-5.918C1194.941,591.658,1197.447,590.909,1200.156,590.909z"/>
	<path fill="#3C3736" d="M1223.555,611.651l5.195-6.642l12.228-13.281h13.438l-17.344,18.945l18.397,24.728h-13.75l-12.578-17.695
		l-5.116,4.102v13.595h-11.914V574.62h11.914v27.108l-0.625,9.923H1223.555z"/>
</g>
</svg>
